# xmcd
#
# Track frame offsets:
#	150
#	13776
#	28135
#	43351
#	56291
#	67390
#	79314
#	90649
#	103028
#	115868
#	127917
#	139871
#	152121
#	164649
#	177151
#	187660
#	199475
#	211737
#	222717
#	234005
#	243906
#	254728
#	267299
#	280323
#	290559
#	305192
#
# Disc length: 4225 seconds
#
# Revision: 0
# Processed by: cddbd v1.5.1PL2 Copyright (c) Steve Scherf et al.
# Submitted via: EasyCDDAExtractor 9.1.3.1
#
DISCID=92107f1a
DTITLE=Various Artist - Shake That Thing! (East Coast Blues, 1935-53) - Disc 
DTITLE=B (1945-52)
DYEAR=2006
DGENRE=Blues
TTITLE0=Gabriel Brown - It's Getting Soft
TTITLE1=Gabriel Brown - Don't Worry About It
TTITLE2=Gabriel Brown - Mean Old Blues
TTITLE3=Gabriel Brown - You Have To Be Different
TTITLE4=Gabriel Brown - The Jinx Is On Me
TTITLE5=Gabriel Brown - It's Time To Move
TTITLE6=Gabriel Brown - Hold Me Baby
TTITLE7=Gabriel Brown - Nobody Loves Me Like My Little Girl
TTITLE8=Gabriel Brown - Youngster's Blues
TTITLE9=Gabriel Brown - Cold Mama
TTITLE10=Gabriel Brown - I'm Just Crazy
TTITLE11=Gabriel Brown - I Am Playing The Game
TTITLE12=Gabriel Brown - I Am Just Hard Luck
TTITLE13=Gabriel Brown - Got No Money Blues
TTITLE14=Gabriel Brown - I Had My Hands On It
TTITLE15=Dan Pickett - Laughing Rag
TTITLE16=Dan Pickett - Baby How Long
TTITLE17=Dan Pickett - You Got To Do Better
TTITLE18=Dan Pickett - Ride To A Funeral In A V-8
TTITLE19=Dan Pickett - Decoration Day
TTITLE20=Dan Pickett - Drivin' That Thing
TTITLE21=Dan Pickett - That's Grieving Me
TTITLE22=Dan Pickett - 99 And A Half Won't Do
TTITLE23=Dan Pckett - Baby Don't You Want To Go
TTITLE24=Dan Pickett - Chicago Blues
TTITLE25=Dan Pickett - Something's Gone Wrong
EXTD=
EXTT0=
EXTT1=
EXTT2=
EXTT3=
EXTT4=
EXTT5=
EXTT6=
EXTT7=
EXTT8=
EXTT9=
EXTT10=
EXTT11=
EXTT12=
EXTT13=
EXTT14=
EXTT15=
EXTT16=
EXTT17=
EXTT18=
EXTT19=
EXTT20=
EXTT21=
EXTT22=
EXTT23=
EXTT24=
EXTT25=
PLAYORDER=
